# xmcd
#
# Track frame offsets:
# 183
# 18178
# 35225
# 53760
# 74888
# 91303
# 108710
# 130125
# 148578
# 170028
# 188118
# 204395
#
# Disc length: 2939 seconds
#
#
# Revision: 0
# Processed by: cddbd v1.5.2PL0 Copyright (c) Steve Scherf et al.
# Submitted via: FreeRIP 2.945 
#
DISCID=b50b790c
DTITLE=최성수 - 최성수4
DYEAR=1990
DGENRE=Folk
TTITLE0=남남
TTITLE1=동행
TTITLE2=풀잎사랑
TTITLE3=해후
TTITLE4=아름다운 날의 끝이여
TTITLE5=당신
TTITLE6=기쁜 우리 사랑은
TTITLE7=그대는 모르시더이다
TTITLE8=후인
TTITLE9=목련꽃 필 때면
TTITLE10=그대에게 무슨 말을 할까
TTITLE11=애수
EXTD=
EXTT0=
EXTT1=
EXTT2=
EXTT3=
EXTT4=
EXTT5=
EXTT6=
EXTT7=
EXTT8=
EXTT9=
EXTT10=
EXTT11=
PLAYORDER=
